<svg width="18" height="27" viewBox="0 0 18 27" fill="none" xmlns="http://www.w3.org/2000/svg">
<path d="M7.24902 7.25L12.8428 7.49805V7.49902L16.6709 7.74512L16.9941 7.82617L17.0889 7.9209L17.25 8.24316V8.63184L17.1982 8.73535L16.8701 9.17285L16.7744 9.26758L14.1016 9.5L6.4834 9.75L6.11621 9.7627L6.01758 10.1172L5.01758 13.7422L5 13.8076V15.75H7.2998L7.34766 15.7402L8.54883 15.5H9.9043L10.3076 15.6611L10.5869 16.0322L10.917 16.583L11 16.832V17.3818L10.8301 17.7207L5.37109 24.0488L5.15332 24.3008L5.30273 24.5986L5.46387 24.9209L5.79297 25.25H7.1875L7.44141 25.3135L7.5 25.4014V26H2.45703L2.25 25.793V24.8799L2.7998 23.8906L5.40527 20.293L5.5 20.1621V18.46L4.6875 19.1094L4.1748 19.5186L2.0957 19.75H1.41699L1.10059 19.5127L0.640625 18.9375L0.623047 18.916L0.5 18.793V16.6875L2.57617 8.37988L3.19629 7.75977L3.91113 7.25H7.24902Z" fill="#171717" stroke="#171717"/>
<path d="M7.24994 2.5H7.25004" stroke="#171717" stroke-width="5" stroke-linecap="round"/>
</svg>
